<svg xmlns="http://www.w3.org/2000/svg" viewBox="10.281 4.16 350.74 169.165" fill="none" stroke-linecap="square" stroke-miterlimit="10"><clipPath id="a"><path d="M0 0h1152v864H0V0z"/></clipPath><g clip-path="url(#a)"><path fill="none" d="M0 0h1152v864H0z"/><path fill="#fff" d="M14.28 8.16h255.66v32.644h87.081v128.521H14.281z" fill-rule="evenodd"/><path stroke="#434343" stroke-width="8" stroke-linejoin="round" stroke-linecap="butt" d="M14.28 8.16h255.66v32.644h87.081v128.521H14.281z"/><path fill="#fff" d="M14.28 8.16h173.031v32.644h169.71v128.521H14.281z" fill-rule="evenodd"/><path stroke="#434343" stroke-width="8" stroke-linejoin="round" stroke-linecap="butt" d="M14.28 8.16h173.031v32.644h169.71v128.521H14.281z"/><path fill="#fff" d="M14.28 8.16h80.584v32.644H357.02v128.521H14.281z" fill-rule="evenodd"/><path stroke="#f60" stroke-width="8" stroke-linejoin="round" stroke-linecap="butt" d="M14.28 8.16h80.584v32.644H357.02v128.521H14.281z"/><path fill="#000" d="M53.458 86.27q0-2.079.72-4.079.718-2 2.093-3.64 1.375-1.657 3.39-2.626 2.016-.984 4.579-.984 3.047 0 5.203 1.39 2.156 1.391 3.187 3.563l-1.765 1.094q-.735-1.5-1.86-2.375-1.11-.89-2.375-1.266-1.265-.39-2.515-.39-2.047 0-3.625.812-1.563.813-2.641 2.172-1.062 1.36-1.61 3.047-.546 1.672-.546 3.406 0 1.89.64 3.625.641 1.719 1.797 3.047 1.157 1.328 2.703 2.11 1.547.78 3.375.78 1.282 0 2.625-.437 1.344-.453 2.516-1.375 1.172-.937 1.875-2.406l1.844.953q-.703 1.703-2.172 2.89-1.469 1.173-3.281 1.782-1.797.61-3.532.61-2.343 0-4.296-1-1.938-1.016-3.375-2.688-1.422-1.688-2.188-3.781-.766-2.094-.766-4.235zm30.109 11.827q-1.782 0-3.313-.687-1.515-.688-2.625-1.875-1.094-1.203-1.703-2.75-.61-1.563-.61-3.281 0-1.797.61-3.344.61-1.563 1.719-2.75 1.125-1.203 2.64-1.89 1.532-.688 3.313-.688 1.797 0 3.297.687 1.515.688 2.625 1.89 1.125 1.188 1.734 2.75.61 1.548.61 3.345 0 1.718-.61 3.28-.61 1.548-1.719 2.75-1.093 1.188-2.625 1.876-1.515.687-3.343.687zm-6.047-8.562q0 1.844.812 3.375.828 1.515 2.203 2.406 1.375.875 3.032.875 1.672 0 3.047-.89 1.375-.907 2.203-2.454.828-1.562.828-3.375 0-1.86-.828-3.39-.828-1.547-2.203-2.438-1.375-.906-3.047-.906-1.657 0-3.016.937-1.36.922-2.203 2.454-.828 1.515-.828 3.406zm32.009 8.25h-2.188v-9.313q0-2.937-.86-4.297-.859-1.359-2.718-1.359-1.281 0-2.531.625-1.25.61-2.203 1.688-.938 1.078-1.344 2.453v10.203h-2.172V81.113h1.984v3.781q.672-1.219 1.75-2.125 1.094-.922 2.47-1.422 1.374-.515 2.843-.515 1.375 0 2.328.515.969.5 1.547 1.453.578.938.828 2.266.266 1.328.266 2.953v9.766zm12.48-.797q-.266.094-.812.36-.532.25-1.313.437-.766.187-1.656.187-.922 0-1.75-.343-.813-.36-1.297-1.079-.469-.718-.469-1.78V82.846H112.4v-1.734h2.312v-5.625h2.172v5.625h3.844v1.734h-3.844v11.328q.063.891.656 1.344.594.438 1.36.438.89 0 1.625-.297.734-.313.906-.438l.578 1.766zm9.62 1.11q-1.782 0-3.329-.688-1.53-.688-2.656-1.875-1.11-1.203-1.734-2.766-.625-1.578-.625-3.375 0-2.328 1.062-4.281 1.078-1.953 2.969-3.11 1.89-1.171 4.281-1.171 2.469 0 4.313 1.187 1.844 1.172 2.89 3.11 1.063 1.937 1.063 4.234v.5q0 .234-.031.375H125.55q.172 1.781 1.016 3.187.844 1.391 2.203 2.204 1.36.812 2.969.812 1.625 0 3.078-.828 1.453-.844 2.031-2.188l1.89.516q-.515 1.188-1.577 2.156-1.047.953-2.469 1.485-1.422.515-3.062.515zm-6.141-9.438h12.328q-.14-1.813-.984-3.188-.844-1.39-2.203-2.172-1.36-.78-3-.78-1.625 0-2.97.78-1.343.782-2.202 2.188-.844 1.39-.97 3.172zm31.753 9.125h-2.188v-9.313q0-2.937-.86-4.297-.859-1.359-2.718-1.359-1.281 0-2.531.625-1.25.61-2.203 1.688-.938 1.078-1.344 2.453v10.203h-2.172V81.113h1.984v3.781q.672-1.219 1.75-2.125 1.094-.922 2.47-1.422 1.374-.515 2.843-.515 1.375 0 2.328.515.969.5 1.547 1.453.578.938.828 2.266.266 1.328.266 2.953v9.766zm12.48-.797q-.266.094-.812.36-.532.25-1.313.437-.766.187-1.656.187-.922 0-1.75-.343-.813-.36-1.297-1.079-.469-.718-.469-1.78V82.846h-2.312v-1.734h2.312v-5.625h2.172v5.625h3.844v1.734h-3.844v11.328q.063.891.656 1.344.594.438 1.36.438.89 0 1.625-.297.734-.313.906-.438l.578 1.766zm17.974 1.11q-1.781 0-3.313-.688-1.515-.688-2.625-1.875-1.093-1.203-1.703-2.75-.61-1.563-.61-3.281 0-1.797.61-3.344.61-1.563 1.719-2.75 1.125-1.203 2.64-1.89 1.532-.688 3.313-.688 1.797 0 3.297.687 1.516.688 2.625 1.89 1.125 1.188 1.734 2.75.61 1.548.61 3.345 0 1.718-.61 3.28-.609 1.548-1.718 2.75-1.094 1.188-2.625 1.876-1.516.687-3.344.687zm-6.047-8.563q0 1.844.813 3.375.828 1.515 2.203 2.406 1.375.875 3.03.875 1.673 0 3.048-.89 1.375-.907 2.203-2.454.828-1.562.828-3.375 0-1.86-.828-3.39-.828-1.547-2.203-2.438-1.375-.906-3.047-.906-1.656 0-3.016.937-1.36.922-2.203 2.454-.828 1.515-.828 3.406zm18.502 8.25V82.847h-2.312v-1.734h2.312v-.453q0-2.047.594-3.516.594-1.469 1.687-2.25 1.11-.797 2.61-.797 1 0 1.922.297.921.281 1.593.766l-.672 1.562q-.406-.343-1.078-.53-.672-.204-1.343-.204-1.5 0-2.329 1.187-.812 1.188-.812 3.422v.516h4.61v1.734h-4.61v14.938h-2.172zm25.22-.797q-.266.094-.813.36-.532.25-1.313.437-.765.187-1.656.187-.922 0-1.75-.343-.813-.36-1.297-1.079-.469-.718-.469-1.78V82.846h-2.312v-1.734h2.312v-5.625h2.172v5.625h3.844v1.734h-3.844v11.328q.063.891.656 1.344.594.438 1.36.438.89 0 1.625-.297.734-.313.906-.438l.578 1.766zm16.735.797h-2.188v-9.313q0-2.812-1-4.234-.984-1.422-2.828-1.422-1.219 0-2.422.625-1.203.61-2.125 1.688-.906 1.078-1.28 2.453v10.203h-2.173v-23.36h2.172v10.47q.984-1.86 2.766-2.954 1.781-1.11 3.797-1.11 1.437 0 2.437.516 1.016.5 1.64 1.485.626.968.907 2.265.297 1.297.297 2.922v9.766zm11.828.312q-1.781 0-3.328-.687-1.532-.688-2.657-1.875-1.109-1.203-1.734-2.766-.625-1.578-.625-3.375 0-2.328 1.063-4.281 1.078-1.953 2.968-3.11 1.89-1.171 4.282-1.171 2.468 0 4.312 1.187 1.844 1.172 2.89 3.11 1.063 1.937 1.063 4.234v.5q0 .234-.031.375h-14.281q.172 1.781 1.015 3.187.844 1.391 2.203 2.204 1.36.812 2.97.812 1.624 0 3.077-.828 1.453-.844 2.032-2.188l1.89.516q-.515 1.188-1.578 2.156-1.047.953-2.469 1.485-1.422.515-3.062.515zm-6.14-9.437h12.327q-.14-1.813-.984-3.188-.844-1.39-2.203-2.172-1.36-.78-3-.78-1.625 0-2.969.78-1.344.782-2.203 2.188-.844 1.39-.969 3.172zm33.896 8.328q-.265.094-.812.36-.531.25-1.313.437-.765.187-1.656.187-.922 0-1.75-.343-.812-.36-1.297-1.079-.469-.718-.469-1.78V82.846h-2.312v-1.734h2.312v-5.625h2.172v5.625h3.844v1.734h-3.844v11.328q.063.891.657 1.344.593.438 1.359.438.89 0 1.625-.297.734-.313.906-.438l.578 1.766zm1.377-4q0-1.578.89-2.703.89-1.14 2.469-1.766 1.594-.625 3.672-.625 1.219 0 2.531.203 1.313.188 2.328.563v-1.406q0-2.11-1.25-3.36-1.234-1.25-3.453-1.25-1.344 0-2.64.5-1.297.5-2.704 1.453l-.828-1.53q1.64-1.126 3.203-1.673 1.563-.562 3.204-.562 3.062 0 4.859 1.765 1.797 1.75 1.797 4.844v7.719q0 .453.187.656.188.203.61.234v1.735q-.36.031-.61.062-.25.032-.39 0-.797-.03-1.22-.5-.405-.484-.437-1.03l-.03-1.22q-1.126 1.438-2.923 2.22-1.781.78-3.64.78-1.594 0-2.891-.687-1.297-.688-2.016-1.844-.718-1.172-.718-2.578zm11.156 1.281q.36-.453.547-.86.187-.421.187-.75v-2.421q-1.078-.422-2.25-.64-1.172-.235-2.343-.235-2.344 0-3.782.937-1.437.922-1.437 2.532 0 .922.469 1.734.484.813 1.406 1.344.937.531 2.187.531 1.563 0 2.922-.61 1.36-.609 2.094-1.562zm15.784 3.828q-1.953 0-3.625-1-1.657-1.015-2.578-2.547v3.235h-1.954v-23.36h2.172v10.172q1.125-1.687 2.688-2.718 1.562-1.047 3.64-1.047 1.766 0 3.157.734 1.39.734 2.375 1.969 1 1.219 1.515 2.781.516 1.547.516 3.188 0 1.75-.594 3.296-.594 1.532-1.687 2.735-1.078 1.187-2.516 1.875-1.422.687-3.11.687zm-.516-1.906q1.344 0 2.5-.547t1.984-1.5q.829-.969 1.266-2.172.453-1.203.453-2.468 0-1.766-.75-3.313-.75-1.562-2.078-2.5-1.328-.953-3.125-.953-1.266 0-2.375.578-1.11.578-1.953 1.531-.844.938-1.39 2.063v5.172q.124.875.671 1.625t1.36 1.297q.812.546 1.703.875.906.312 1.734.312zM151.87 136.097q-2.08 0-3.735-1.078-1.64-1.094-2.594-2.687v10.265h-2.172v-23.484h1.953v3.234q.985-1.578 2.64-2.547 1.673-.968 3.563-.968 1.72 0 3.157.718 1.453.72 2.5 1.938 1.062 1.203 1.656 2.766.594 1.546.594 3.218 0 2.328-.954 4.297-.937 1.969-2.64 3.156-1.688 1.172-3.969 1.172zm-.61-1.906q1.39 0 2.468-.562 1.094-.563 1.875-1.516.782-.969 1.188-2.172.422-1.203.422-2.469 0-1.343-.469-2.562-.453-1.219-1.328-2.14-.86-.938-1.984-1.485-1.11-.547-2.422-.547-.828 0-1.735.328-.89.313-1.703.906-.812.594-1.36 1.328-.546.735-.671 1.579v5.109q.516 1.187 1.375 2.14.86.938 2 1.5 1.14.563 2.344.563zm10.51-3.203q0-1.578.89-2.703.89-1.14 2.469-1.766 1.593-.625 3.672-.625 1.218 0 2.53.203 1.313.188 2.329.563v-1.406q0-2.11-1.25-3.36-1.234-1.25-3.453-1.25-1.344 0-2.64.5-1.298.5-2.704 1.453l-.828-1.531q1.64-1.125 3.203-1.672 1.563-.562 3.203-.562 3.063 0 4.86 1.765 1.796 1.75 1.796 4.844v7.719q0 .453.188.656.187.203.61.234v1.735q-.36.031-.61.062-.25.032-.39 0-.798-.031-1.22-.5-.406-.484-.437-1.031l-.031-1.219q-1.125 1.438-2.922 2.219-1.781.781-3.64.781-1.594 0-2.891-.687-1.297-.688-2.016-1.844-.719-1.172-.719-2.578zm11.156 1.281q.359-.453.546-.86.188-.421.188-.75v-2.421q-1.078-.422-2.25-.64-1.172-.235-2.344-.235-2.344 0-3.781.937-1.438.922-1.438 2.532 0 .922.47 1.734.484.813 1.405 1.344.938.531 2.188.531 1.562 0 2.922-.61 1.36-.609 2.094-1.562zm21.643 3.516h-2.188v-9.313q0-2.937-.86-4.297-.858-1.359-2.718-1.359-1.281 0-2.531.625-1.25.61-2.203 1.688-.938 1.078-1.344 2.453v10.203h-2.172v-16.672h1.985v3.781q.671-1.219 1.75-2.125 1.093-.922 2.468-1.422 1.375-.515 2.844-.515 1.375 0 2.328.515.969.5 1.547 1.453.578.938.828 2.266.266 1.328.266 2.953v9.766zm11.828.312q-1.782 0-3.328-.687-1.532-.688-2.657-1.875-1.11-1.203-1.734-2.766-.625-1.578-.625-3.375 0-2.328 1.062-4.281 1.079-1.953 2.97-3.11 1.89-1.171 4.28-1.171 2.47 0 4.313 1.187 1.844 1.172 2.89 3.11 1.063 1.937 1.063 4.234v.5q0 .234-.031.375h-14.281q.171 1.781 1.015 3.187.844 1.391 2.203 2.204 1.36.812 2.969.812 1.625 0 3.078-.828 1.453-.844 2.031-2.188l1.891.516q-.516 1.188-1.578 2.156-1.047.953-2.469 1.485-1.422.515-3.062.515zm-6.141-9.437h12.328q-.14-1.813-.984-3.188-.844-1.39-2.203-2.172-1.36-.78-3-.78-1.625 0-2.97.78-1.343.782-2.202 2.188-.844 1.39-.969 3.172zm17.831-14.235h2.172v19.579q0 1.25.437 1.64.453.375 1.094.375.578 0 1.156-.125t1-.25l.375 1.75q-.609.266-1.484.422-.875.156-1.516.156-1.484 0-2.359-.86-.875-.858-.875-2.374v-20.313zm8.282 23.36v-3.14h1.89v3.14h-1.89z"/></g></svg>